<?xml version="1.0" encoding="UTF-8"?>
<!DOCTYPE svg PUBLIC "-//W3C//DTD SVG 1.1//EN" "http://www.w3.org/Graphics/SVG/1.1/DTD/svg11.dtd">
<!-- Creator: CorelDRAW X8 -->
<svg xmlns="http://www.w3.org/2000/svg" xml:space="preserve" width="638px" height="387px" version="1.1" style="shape-rendering:geometricPrecision; text-rendering:geometricPrecision; image-rendering:optimizeQuality; fill-rule:evenodd; clip-rule:evenodd"
viewBox="0 0 638002 387283"
 xmlns:xlink="http://www.w3.org/1999/xlink">
 <defs>
  <style type="text/css">
   <![CDATA[
    .fil1 {fill:#999999}
    .fil0 {fill:#BA342E}
    .fil2 {fill:#999999;fill-rule:nonzero}
   ]]>
  </style>
 </defs>
 <g id="Capa_x0020_1">
  <metadata id="CorelCorpID_0Corel-Layer"/>
  <g id="_1827342916992">
   <path class="fil0" d="M88914 157l0 0c2927,710 4696,3633 3986,6469l-3190 13029 25438 0 -3102 -12763c-710,-2836 1064,-5762 3899,-6469l0 0c2836,-710 5762,1064 6469,3986l3724 15246 16840 -887 14359 27388c2570,976 4430,3368 4430,6290 0,3724 -3014,6735 -6735,6735 -3720,0 -6735,-3011 -6735,-6735 0,-1860 798,-3545 2039,-4787l-11523 -19943 -10723 0 10193 41837 24373 -179 14446 27388c2570,976 4431,3368 4431,6294 0,3722 -3015,6735 -6735,6735 -3721,0 -6735,-3014 -6735,-6735 0,-1860 797,-3545 2038,-4787l-11435 -19764 -18168 0 40419 166014c25083,6294 45026,17995 59650,33325 7624,7980 -1153,9663 -5053,6116 -32972,-29958 -75693,-41036 -115048,-36518 -47152,5496 -93331,25349 -111854,61689 -3546,6913 -11610,1594 -7446,-3899 3722,-4878 7446,-9749 11435,-14627l51761 -212100 -18523 0 -12142 20918c977,1152 1507,2658 1507,4253 0,3723 -3015,6734 -6647,6734 -3724,0 -6735,-3011 -6735,-6734 0,-3280 2304,-6026 5406,-6648l14802 -27475 24462 0 10193 -41837 -11878 0 -11876 20475c1241,1238 2038,2927 2038,4875 0,3721 -3014,6735 -6738,6735 -3721,0 -6735,-3015 -6735,-6735 0,-2928 1864,-5407 4430,-6295l14449 -27387 18348 266 3812 -15600c620,-2830 3544,-4603 6379,-3893l0 0zm80391 241879l-6382 -26143 -46708 24107c1151,-87 2392,-178 3633,-266 18081,-1152 34566,-352 49457,2302l0 0zm-76404 1155l2217 -1153 -52649 -28717 -14977 61422c15155,-13914 34919,-25702 65409,-31552l0 0zm66479 -34301l-56373 -44141 -54598 42724 55308 30133 55663 -28716zm-62930 -49278l-34301 -26856 -16223 66473 50524 -39617zm36959 -28986l-30401 23841 -30490 -23841 60891 0zm-23933 28986l33416 -26150 15687 64616 -49103 -38466zm30758 -37050l-10725 -44051 -54156 1 -10725 44051 75606 -1zm-52474 -94840l-10192 41837 49724 1 -10193 -41837 -29339 -1z"/>
   <path class="fil0" d="M282579 117421l21184 62751 21181 -63196c1154,-3279 1951,-5583 2483,-6913 620,-1328 1507,-2479 2749,-3545 1328,-976 3102,-1507 5228,-1507 1686,0 3192,353 4522,1241 1417,797 2483,1860 3279,3192 797,1332 1151,2658 1151,4077 0,887 -87,1951 -353,3015 -266,1063 -619,2126 -976,3192 -357,1066 -798,2126 -1154,3192l-22600 61157c-888,2304 -1685,4609 -2483,6647 -798,2130 -1773,3987 -2836,5584 -976,1595 -2392,2924 -4168,3899 -1773,1064 -3987,1594 -6469,1594 -2571,0 -4788,-531 -6561,-1504 -1772,-1066 -3192,-2305 -4255,-3986 -1064,-1685 -2039,-3456 -2836,-5584 -798,-2039 -1595,-4343 -2392,-6648l-22245 -60632c-444,-1064 -798,-2214 -1239,-3280 -356,-1063 -710,-2213 -976,-3455 -266,-1242 -444,-2214 -444,-3102 0,-2126 885,-4165 2658,-5938 1685,-1772 3902,-2661 6560,-2661 3192,0 5496,976 6826,2927 1331,2035 2746,5140 4166,9483l0 0zm112387 74540c-4252,3279 -8330,5762 -12229,7360 -3899,1681 -8333,2479 -13207,2479 -4522,0 -8421,-885 -11791,-2661 -3368,-1771 -6028,-4165 -7886,-7180 -1773,-3014 -2749,-6294 -2749,-9837 0,-4784 1504,-8861 4609,-12229 3015,-3368 7182,-5584 12410,-6735 1151,-266 3899,-800 8245,-1772 4431,-886 8152,-1682 11257,-2396 3102,-798 6560,-1682 10193,-2745 -179,-4609 -1152,-7977 -2749,-10103 -1682,-2126 -5050,-3192 -10193,-3192 -4431,0 -7799,619 -10016,1860 -2213,1153 -4164,3015 -5762,5494 -1594,2483 -2658,4077 -3368,4875 -620,798 -2035,1241 -4252,1241 -1948,0 -3633,-620 -5050,-1951 -1419,-1241 -2130,-2837 -2130,-4788 0,-3102 1064,-6028 3192,-8952 2217,-2927 5584,-5319 10193,-7179 4609,-1860 10369,-2836 17194,-2836 7624,0 13648,976 18082,2745 4344,1860 7446,4696 9306,8598 1773,3903 2661,9131 2661,15600 0,4077 0,7533 0,10369 0,2927 -87,6116 -87,9575 0,3279 532,6647 1598,10193 1151,3545 1681,5849 1681,6913 0,1773 -885,3368 -2570,4879 -1682,1416 -3546,2213 -5669,2213 -1864,0 -3546,-885 -5319,-2570 -1780,-1683 -3643,-4079 -5594,-7268l0 0zm-1151 -25261c-2570,976 -6203,1948 -11165,3015 -4788,976 -8155,1770 -10103,2301 -1864,444 -3633,1419 -5320,2836 -1681,1419 -2570,3455 -2570,6028 0,2662 979,4875 3015,6735 1951,1864 4612,2749 7888,2749 3368,0 6560,-710 9480,-2217 2928,-1594 5054,-3456 6470,-5850 1506,-2658 2304,-7001 2304,-13116l1 -2481zm34832 24464l0 -75606c0,-3455 798,-6115 2301,-7886 1598,-1772 3633,-2661 6294,-2661 2571,0 4788,887 6382,2661 1598,1773 2395,4343 2395,7886l0 75606c0,3545 -797,6203 -2483,7977 -1594,1773 -3721,2662 -6294,2662 -2573,0 -4609,-977 -6203,-2749 -1594,-1865 -2392,-4523 -2392,-7890l0 0zm93333 -23576l0 23223c0,3633 -798,6381 -2483,8242 -1595,1772 -3812,2748 -6560,2748 -2571,0 -4784,-976 -6382,-2748 -1594,-1861 -2483,-4609 -2483,-8242l0 -27829c0,-4346 -178,-7801 -444,-10193 -266,-2392 -1064,-4430 -2392,-5937 -1332,-1594 -3456,-2392 -6294,-2392 -5763,0 -9484,1951 -11260,5937 -1861,3899 -2749,9484 -2749,16841l0 23576c0,3546 -798,6294 -2480,8152 -1597,1864 -3811,2837 -6469,2837 -2570,0 -4787,-977 -6469,-2837 -1685,-1860 -2483,-4609 -2483,-8152l1 -49908c0,-3279 711,-5762 2217,-7445 1505,-1685 3546,-2570 6029,-2570 2392,0 4343,797 5935,2392 1597,1594 2395,3811 2395,6560l0 1685c3015,-3633 6294,-6294 9662,-7977 3456,-1685 7358,-2570 11523,-2570 4434,0 8154,885 11347,2657 3102,1773 5763,4343 7711,7889 3015,-3546 6116,-6203 9484,-7889 3368,-1772 7092,-2657 11166,-2657 4787,0 8864,976 12320,2836 3455,1864 6028,4609 7801,8067 1417,3102 2213,8067 2213,14889l0 34035c0,3633 -885,6382 -2483,8242 -1681,1773 -3898,2749 -6560,2749 -2658,0 -4875,-976 -6469,-2836 -1682,-1860 -2567,-4609 -2567,-8152l0 -29339c0,-3722 -178,-6735 -444,-9040 -357,-2217 -1241,-4077 -2661,-5672 -1332,-1507 -3456,-2305 -6382,-2305 -2305,0 -4434,711 -6560,2039 -2039,1419 -3633,3192 -4788,5494 -1323,2924 -1942,8154 -1942,15600l0 0zm73829 36339l1685 -3898 -21449 -53978c-1328,-3102 -2035,-5407 -2035,-6826 0,-1420 444,-2837 1151,-4168 798,-1241 1860,-2214 3192,-3015 1328,-798 2749,-1151 4165,-1151 2483,0 4430,797 5672,2392 1329,1594 2396,3902 3368,6826l14800 42991 13918 -39977c1151,-3192 2126,-5760 3011,-7532 887,-1864 1863,-3102 2836,-3724 1066,-619 2483,-976 4256,-976 1328,0 2567,353 3811,1063 1238,711 2126,1595 2836,2837 619,1153 976,2395 976,3721 -178,888 -444,2039 -885,3456 -353,1506 -800,3014 -1332,4521l-22779 59562c-1947,5228 -3898,9393 -5669,12317 -1951,3014 -4434,5319 -7535,6913 -3014,1598 -7179,2395 -12407,2395 -5143,0 -8952,-531 -11526,-1681 -2570,-1066 -3811,-3102 -3811,-6028 0,-2039 619,-3546 1863,-4613 1151,-1151 3012,-1682 5316,-1682 976,0 1864,179 2749,354 1151,266 2129,444 2927,444 1948,0 3545,-353 4697,-885 1153,-619 2129,-1685 3102,-3102 880,-1506 1947,-3632 3097,-6556l0 0z"/>
   <path class="fil1" d="M289579 274303c-2126,1772 -4164,3014 -6115,3811 -1864,712 -3990,1066 -6203,1066 -3633,0 -6469,-888 -8421,-2662 -1951,-1772 -2927,-4077 -2927,-6826 0,-1597 353,-3102 1154,-4434 710,-1328 1685,-2392 2836,-3192 1241,-885 2570,-1504 4077,-1860 1153,-353 2836,-619 5053,-885 4522,-534 7889,-1153 10016,-1951 0,-710 0,-1239 0,-1417 0,-2304 -532,-3902 -1594,-4878 -1420,-1239 -3546,-1860 -6382,-1860 -2661,0 -4609,444 -5850,1416 -1328,886 -2217,2571 -2836,4875l-5494 -710c532,-2392 1328,-4252 2479,-5760 1154,-1419 2836,-2570 4962,-3279 2214,-800 4697,-1241 7536,-1241 2836,0 5140,353 7000,1066 1773,619 3015,1504 3899,2479 798,979 1419,2305 1773,3811 178,979 266,2749 266,5231l0 7445c0,5231 87,8511 357,9928 178,1332 710,2749 1328,3986l-5850 2c-619,-1150 -973,-2567 -1064,-4161l0 0zm-530 -12499c-2039,888 -5053,1598 -9218,2130 -2305,353 -3899,710 -4875,1151 -976,357 -1685,978 -2213,1772 -529,795 -798,1682 -798,2662 0,1504 532,2749 1685,3721 1151,976 2836,1505 5053,1505 2126,0 4078,-445 5760,-1417 1686,-886 2928,-2217 3722,-3812 623,-1332 887,-3192 887,-5672l-1 -2040 -2 0zm26590 11610l798 4962c-1595,357 -3011,534 -4252,534 -2039,0 -3633,-357 -4697,-978 -1153,-619 -1951,-1505 -2392,-2571 -444,-1063 -710,-3277 -710,-6647l0 -19143 -4166 2 0 -4347 4165 0 0 -8151 5672 -3455 0 11610 5584 0 0 4346 -5584 0 0 19498c0,1595 88,2658 266,3103 179,444 532,797 976,1063 445,266 1064,445 1952,445 615,-5 1412,-93 2388,-271l0 0zm5405 5053l0 -45823 5673 0 0 45820 -5673 0 0 3zm36074 -4164c-2038,1772 -4077,3014 -6028,3811 -1947,712 -3986,1066 -6203,1066 -3633,0 -6469,-888 -8418,-2662 -1951,-1772 -2927,-4077 -2927,-6826 0,-1597 353,-3102 1063,-4434 798,-1328 1773,-2392 2928,-3192 1238,-885 2570,-1504 4077,-1860 1066,-353 2749,-619 4966,-885 4609,-534 7977,-1153 10103,-1951 0,-710 0,-1239 0,-1417 0,-2304 -532,-3902 -1598,-4878 -1417,-1239 -3545,-1860 -6382,-1860 -2657,0 -4696,444 -5935,1416 -1240,886 -2217,2571 -2748,4875l-5497 -710c445,-2392 1241,-4252 2396,-5760 1151,-1419 2836,-2570 5049,-3279 2130,-800 4700,-1241 7535,-1241 2836,0 5141,353 6914,1066 1770,619 3102,1504 3899,2479 885,979 1417,2305 1772,3811 179,979 266,2749 266,5231l0 7445c0,5231 179,8511 354,9928 265,1332 710,2749 1416,3986l-5938 2c-532,-1150 -885,-2567 -1064,-4161l0 0zm-440 -12499c-2039,888 -5144,1598 -9218,2130 -2305,353 -3986,710 -4963,1151 -887,357 -1685,978 -2217,1772 -444,798 -710,1682 -710,2662 0,1504 532,2749 1682,3721 1153,976 2749,1505 4966,1505 2213,0 4077,-445 5760,-1417 1685,-886 3014,-2217 3723,-3812 620,-1332 977,-3192 977,-5672l0 -2040zm-11878 -20652l4168 -8773 7356 -1 -6826 8773 -4698 1zm26236 37315l0 -33237 5054 0 0 4699c2392,-3545 5937,-5406 10546,-5406 2038,0 3811,353 5496,1066 1682,797 2924,1681 3812,2833 797,1153 1417,2570 1681,4168 266,1063 354,2923 354,5494l0 20387 -5668 0 0 -20209c0,-2301 -179,-3986 -623,-5141 -444,-1065 -1239,-2038 -2301,-2661 -1153,-710 -2483,-1064 -3899,-1064 -2395,0 -4521,798 -6203,2301 -1773,1507 -2661,4434 -2661,8687l0 18078 -5588 2 0 3zm47775 -5053l798 4962c-1598,357 -3015,534 -4252,534 -2039,0 -3546,-357 -4700,-978 -1151,-619 -1948,-1505 -2396,-2571 -444,-1063 -710,-3277 -710,-6647l0 -19143 -4165 2 0 -4347 4165 0 0 -8151 5673 -3455 0 11610 5584 0 0 4346 -5584 0 0 19498c0,1595 87,2658 265,3103 179,444 532,797 977,1063 444,266 1066,445 1951,445 620,-5 1414,-93 2394,-271l0 0zm5580 -34388l0 -6381 5673 -1 0 6381 -5673 1zm0 39441l0 -33237 5673 0 0 33237 -5673 0zm35899 -12141l5497 710c-532,3811 -2130,6826 -4613,8952 -2479,2126 -5494,3192 -9126,3192 -4522,0 -8155,-1507 -10995,-4434 -2745,-3015 -4077,-7267 -4077,-12764 0,-3545 620,-6734 1773,-9392 1151,-2662 3015,-4700 5407,-6029 2395,-1331 5053,-2038 7888,-2038 3633,0 6560,976 8861,2749 2304,1863 3724,4430 4434,7798l-5496 800c-532,-2217 -1417,-3902 -2749,-5053 -1329,-1064 -2928,-1682 -4784,-1682 -2836,0 -5143,1064 -6914,3103 -1772,2035 -2661,5228 -2661,9571 0,4521 798,7713 2570,9749 1682,1952 3899,3015 6648,3015 2213,0 4077,-710 5582,-2035 1427,-1340 2400,-3464 2755,-6212l0 0zm31997 7977c-2038,1772 -4077,3014 -6028,3811 -1951,712 -3986,1066 -6203,1066 -3633,0 -6469,-888 -8418,-2662 -1951,-1772 -2927,-4077 -2927,-6826 0,-1597 353,-3102 1063,-4434 798,-1328 1773,-2392 2928,-3192 1238,-885 2570,-1504 4077,-1860 1153,-353 2749,-619 5053,-885 4518,-534 7886,-1153 10016,-1951 0,-710 0,-1239 0,-1417 0,-2304 -532,-3902 -1598,-4878 -1417,-1239 -3545,-1860 -6382,-1860 -2658,0 -4609,444 -5935,1416 -1241,886 -2129,2571 -2748,4875l-5497 -710c444,-2392 1328,-4252 2483,-5760 1151,-1419 2749,-2570 4962,-3279 2130,-800 4700,-1241 7535,-1241 2833,0 5141,353 6914,1066 1770,619 3102,1504 3986,2479 798,979 1417,2305 1682,3811 178,979 353,2749 353,5231l0 7445c0,5231 87,8511 357,9928 178,1332 619,2749 1328,3986l-5850 2c-619,-1150 -972,-2567 -1151,-4161l0 0zm-444 -12499c-2039,888 -5053,1598 -9218,2130 -2304,353 -3899,710 -4878,1151 -977,357 -1682,978 -2214,1772 -532,795 -798,1682 -798,2662 0,1504 532,2749 1682,3721 1150,973 2836,1505 4966,1505 2213,0 4165,-445 5847,-1417 1686,-886 2928,-2217 3722,-3812 623,-1332 887,-3192 887,-5672l2 -2040 2 0z"/>
  </g>
  <path class="fil2" d="M36046 361269l0 -4552 16422 0 0 14380c-2521,2005 -5122,3522 -7805,4534 -2683,1012 -5438,1517 -8257,1517 -3811,0 -7271,-813 -10388,-2447 -3107,-1626 -5464,-3992 -7044,-7073 -1591,-3089 -2385,-6540 -2385,-10343 0,-3776 786,-7299 2366,-10577 1581,-3270 3848,-5700 6810,-7281 2963,-1589 6378,-2385 10244,-2385 2801,0 5338,452 7606,1364 2268,912 4046,2177 5330,3795 1291,1625 2266,3748 2935,6359l-4633 1264c-588,-1970 -1311,-3522 -2169,-4660 -867,-1130 -2095,-2033 -3704,-2710 -1599,-679 -3377,-1021 -5338,-1021 -2340,0 -4363,361 -6079,1075 -1708,713 -3080,1652 -4137,2827 -1047,1165 -1861,2447 -2438,3838 -986,2412 -1482,5015 -1482,7824 0,3468 595,6367 1779,8707 1193,2331 2926,4065 5194,5194 2276,1129 4688,1698 7245,1698 2221,0 4390,-433 6503,-1291 2114,-868 3713,-1780 4806,-2765l0 -7271 -11381 0z"/>
  <path id="1" class="fil2" d="M59395 376498l0 -28128 4282 0 0 4308c1093,-1996 2105,-3314 3035,-3947 930,-641 1951,-957 3062,-957 1608,0 3242,506 4905,1508l-1698 4400c-1157,-651 -2313,-976 -3468,-976 -1039,0 -1971,316 -2792,939 -822,623 -1410,1490 -1762,2601 -533,1690 -794,3542 -794,5556l0 14696 -4770 0z"/>
  <path id="2" class="fil2" d="M95871 372976c-1770,1508 -3478,2565 -5114,3188 -1634,624 -3387,930 -5266,930 -3089,0 -5464,-749 -7126,-2257 -1663,-1500 -2493,-3424 -2493,-5764 0,-1373 316,-2628 939,-3766 632,-1138 1455,-2042 2467,-2729 1019,-686 2158,-1210 3431,-1562 940,-243 2358,-479 4247,-714 3848,-451 6692,-1002 8508,-1634 18,-651 28,-1066 28,-1238 0,-1933 -452,-3297 -1356,-4092 -1219,-1076 -3035,-1607 -5437,-1607 -2249,0 -3912,397 -4978,1183 -1074,786 -1860,2176 -2375,4182l-4661 -651c424,-1996 1120,-3613 2095,-4841 976,-1229 2385,-2168 4227,-2837 1834,-660 3976,-993 6396,-993 2403,0 4363,280 5871,849 1500,569 2611,1274 3315,2132 706,857 1202,1941 1492,3252 153,813 234,2276 234,4381l0 6322c0,4418 99,7209 299,8392 189,1183 586,2313 1165,3396l-4987 0c-479,-1002 -786,-2176 -921,-3522zm-379 -10569c-1735,704 -4336,1301 -7805,1789 -1970,280 -3361,596 -4174,948 -813,352 -1436,867 -1878,1536 -443,677 -669,1427 -669,2257 0,1257 479,2313 1446,3153 966,841 2375,1265 4227,1265 1834,0 3468,-397 4904,-1202 1428,-794 2484,-1887 3153,-3269 516,-1075 768,-2656 768,-4742l28 -1735z"/>
  <path id="3" class="fil2" d="M107640 376498l0 -28128 4282 0 0 3993c2060,-3063 5040,-4589 8933,-4589 1698,0 3252,307 4670,912 1419,605 2485,1409 3189,2394 704,984 1202,2159 1482,3514 171,885 261,2430 261,4634l0 17270 -4768 0 0 -17090c0,-1942 -181,-3396 -552,-4354 -370,-957 -1030,-1726 -1969,-2303 -940,-569 -2051,-858 -3315,-858 -2023,0 -3768,641 -5239,1933 -1472,1282 -2204,3731 -2204,7326l0 15346 -4770 0z"/>
  <path id="4" class="fil2" d="M172027 367393l4932 651c-768,2863 -2204,5095 -4299,6675 -2097,1581 -4770,2375 -8030,2375 -4102,0 -7354,-1264 -9756,-3793 -2404,-2520 -3605,-6070 -3605,-10632 0,-4715 1211,-8382 3640,-10984 2430,-2611 5583,-3911 9458,-3911 3749,0 6811,1273 9186,3830 2377,2556 3569,6151 3569,10785 0,280 -9,705 -27,1265l-20948 0c181,3079 1048,5447 2620,7081 1562,1636 3523,2457 5863,2457 1743,0 3233,-460 4461,-1382 1238,-921 2213,-2394 2936,-4417zm-15609 -7642l15663 0c-207,-2367 -812,-4137 -1798,-5320 -1508,-1834 -3477,-2755 -5889,-2755 -2186,0 -4019,732 -5510,2195 -1481,1463 -2304,3424 -2466,5880z"/>
  <path id="5" class="fil2" d="M182984 376498l0 -28128 4281 0 0 3974c876,-1373 2051,-2484 3514,-3315 1463,-840 3126,-1255 4995,-1255 2078,0 3786,434 5113,1292 1328,866 2267,2068 2809,3622 2240,-3280 5141,-4914 8717,-4914 2800,0 4960,767 6458,2312 1509,1544 2268,3921 2268,7127l0 19285 -4770 0 0 -17704c0,-1897 -162,-3270 -469,-4110 -307,-840 -867,-1509 -1690,-2023 -813,-516 -1770,-768 -2863,-768 -1987,0 -3631,659 -4941,1968 -1310,1319 -1960,3424 -1960,6315l0 16322 -4769 0 0 -18256c0,-2113 -389,-3702 -1166,-4760 -776,-1056 -2050,-1589 -3812,-1589 -1337,0 -2574,352 -3712,1056 -1138,706 -1961,1735 -2475,3099 -506,1355 -759,3315 -759,5871l0 14579 -4769 0z"/>
  <path id="6" class="fil2" d="M228130 387283l0 -38913 4336 0 0 3694c1020,-1426 2177,-2502 3469,-3216 1282,-713 2846,-1074 4678,-1074 2403,0 4517,613 6351,1852 1833,1228 3216,2971 4156,5212 930,2249 1399,4705 1399,7388 0,2864 -514,5447 -1545,7750 -1029,2295 -2529,4056 -4498,5285 -1960,1220 -4028,1833 -6197,1833 -1589,0 -3017,-333 -4272,-1002 -1265,-669 -2294,-1508 -3107,-2529l0 13720 -4770 0zm4336 -24678c0,3605 732,6270 2185,7995 1465,1726 3235,2592 5313,2592 2113,0 3919,-894 5419,-2683 1508,-1788 2259,-4552 2259,-8301 0,-3577 -732,-6250 -2204,-8030 -1473,-1780 -3226,-2665 -5267,-2665 -2024,0 -3812,949 -5366,2837 -1562,1896 -2339,4643 -2339,8255z"/>
  <path id="7" class="fil2" d="M258219 376498l0 -28128 4281 0 0 4308c1093,-1996 2105,-3314 3035,-3947 930,-641 1951,-957 3062,-957 1608,0 3243,506 4906,1508l-1699 4400c-1157,-651 -2312,-976 -3468,-976 -1039,0 -1970,316 -2792,939 -822,623 -1409,1490 -1762,2601 -533,1690 -794,3542 -794,5556l0 14696 -4769 0z"/>
  <path id="8" class="fil2" d="M295507 367393l4932 651c-768,2863 -2204,5095 -4299,6675 -2097,1581 -4770,2375 -8031,2375 -4102,0 -7353,-1264 -9755,-3793 -2404,-2520 -3605,-6070 -3605,-10632 0,-4715 1210,-8382 3640,-10984 2430,-2611 5583,-3911 9458,-3911 3749,0 6811,1273 9186,3830 2377,2556 3569,6151 3569,10785 0,280 -9,705 -27,1265l-20948 0c180,3079 1048,5447 2620,7081 1562,1636 3522,2457 5862,2457 1743,0 3234,-460 4462,-1382 1238,-921 2213,-2394 2936,-4417zm-15609 -7642l15663 0c-207,-2367 -812,-4137 -1798,-5320 -1508,-1834 -3477,-2755 -5889,-2755 -2186,0 -4019,732 -5510,2195 -1481,1463 -2304,3424 -2466,5880z"/>
  <path id="9" class="fil2" d="M304567 368098l4715 -760c261,1889 1002,3334 2212,4346 1211,1002 2909,1508 5077,1508 2195,0 3821,-442 4887,-1337 1057,-885 1590,-1932 1590,-3134 0,-1075 -479,-1924 -1427,-2538 -669,-425 -2295,-958 -4878,-1617 -3486,-876 -5898,-1636 -7254,-2276 -1345,-651 -2366,-1536 -3062,-2674 -695,-1129 -1047,-2385 -1047,-3757 0,-1257 288,-2412 858,-3478 578,-1066 1354,-1951 2339,-2656 741,-542 1752,-1003 3026,-1382 1282,-380 2647,-569 4110,-569 2204,0 4137,316 5799,957 1672,633 2899,1500 3695,2584 786,1093 1336,2546 1635,4371l-4661 651c-208,-1464 -822,-2610 -1834,-3433 -1011,-821 -2439,-1228 -4291,-1228 -2177,0 -3739,361 -4669,1084 -931,722 -1400,1572 -1400,2538 0,614 189,1174 577,1672 389,505 994,930 1825,1264 479,181 1870,587 4200,1220 3361,893 5709,1634 7046,2204 1337,568 2385,1408 3143,2492 769,1093 1148,2449 1148,4075 0,1580 -461,3070 -1391,4471 -931,1400 -2268,2484 -4011,3252 -1753,767 -3731,1146 -5935,1146 -3649,0 -6441,-759 -8355,-2267 -1915,-1517 -3134,-3758 -3667,-6729z"/>
  <path id="10" class="fil2" d="M351935 372976c-1770,1508 -3478,2565 -5113,3188 -1635,624 -3387,930 -5266,930 -3090,0 -5465,-749 -7127,-2257 -1662,-1500 -2493,-3424 -2493,-5764 0,-1373 317,-2628 939,-3766 633,-1138 1455,-2042 2467,-2729 1020,-686 2158,-1210 3432,-1562 939,-243 2357,-479 4246,-714 3848,-451 6692,-1002 8509,-1634 17,-651 27,-1066 27,-1238 0,-1933 -452,-3297 -1356,-4092 -1219,-1076 -3035,-1607 -5437,-1607 -2249,0 -3912,397 -4978,1183 -1074,786 -1860,2176 -2375,4182l-4661 -651c424,-1996 1120,-3613 2095,-4841 976,-1229 2385,-2168 4227,-2837 1835,-660 3976,-993 6396,-993 2403,0 4363,280 5871,849 1500,569 2611,1274 3315,2132 706,857 1202,1941 1492,3252 153,813 234,2276 234,4381l0 6322c0,4418 99,7209 299,8392 189,1183 586,2313 1165,3396l-4987 0c-479,-1002 -786,-2176 -921,-3522zm-379 -10569c-1735,704 -4336,1301 -7805,1789 -1970,280 -3361,596 -4174,948 -813,352 -1436,867 -1878,1536 -443,677 -669,1427 -669,2257 0,1257 479,2313 1446,3153 966,841 2375,1265 4227,1265 1834,0 3469,-397 4904,-1202 1428,-794 2485,-1887 3153,-3269 516,-1075 769,-2656 769,-4742l27 -1735z"/>
  <polygon id="11" class="fil2" points="375186,377148 386459,337042 390298,337042 379024,377148 "/>
  <polygon id="12" class="fil2" points="410342,376498 410342,337693 415491,337693 415491,376498 "/>
  <path id="13" class="fil2" d="M423938 376498l0 -28128 4281 0 0 3993c2060,-3063 5041,-4589 8933,-4589 1699,0 3253,307 4671,912 1418,605 2484,1409 3188,2394 705,984 1202,2159 1482,3514 172,885 261,2430 261,4634l0 17270 -4768 0 0 -17090c0,-1942 -181,-3396 -552,-4354 -370,-957 -1029,-1726 -1969,-2303 -939,-569 -2050,-858 -3315,-858 -2023,0 -3767,641 -5239,1933 -1472,1282 -2204,3731 -2204,7326l0 15346 -4769 0z"/>
  <path id="14" class="fil2" d="M472236 376498l0 -3567c-1780,2772 -4399,4163 -7859,4163 -2239,0 -4299,-613 -6169,-1851 -1879,-1229 -3334,-2954 -4372,-5158 -1030,-2214 -1545,-4751 -1545,-7624 0,-2799 470,-5338 1400,-7623 940,-2277 2340,-4029 4210,-5239 1861,-1220 3957,-1825 6260,-1825 1698,0 3206,361 4525,1074 1319,714 2394,1654 3225,2801l0 -13956 4770 0 0 38805 -4445 0zm-15067 -14027c0,3595 759,6277 2286,8057 1517,1779 3315,2664 5383,2664 2087,0 3857,-849 5320,-2547 1455,-1698 2187,-4291 2187,-7777 0,-3830 -741,-6649 -2232,-8446 -1480,-1798 -3314,-2691 -5491,-2691 -2123,0 -3894,858 -5321,2583 -1418,1724 -2132,4444 -2132,8157z"/>
  <path id="15" class="fil2" d="M502596 376498l0 -4182c-2186,3189 -5149,4778 -8898,4778 -1653,0 -3198,-315 -4633,-948 -1437,-641 -2503,-1436 -3198,-2394 -696,-965 -1183,-2140 -1463,-3531 -191,-940 -290,-2422 -290,-4445l0 -17406 4770 0 0 15564c0,2484 99,4164 288,5022 299,1255 931,2232 1906,2944 967,714 2159,1076 3587,1076 1426,0 2764,-362 4010,-1094 1247,-731 2132,-1733 2656,-2989 515,-1256 777,-3090 777,-5483l0 -15040 4770 0 0 28128 -4282 0z"/>
  <path id="16" class="fil2" d="M512469 368098l4715 -760c261,1889 1002,3334 2212,4346 1210,1002 2909,1508 5077,1508 2195,0 3821,-442 4887,-1337 1056,-885 1589,-1932 1589,-3134 0,-1075 -478,-1924 -1426,-2538 -669,-425 -2295,-958 -4878,-1617 -3487,-876 -5899,-1636 -7254,-2276 -1345,-651 -2366,-1536 -3062,-2674 -695,-1129 -1047,-2385 -1047,-3757 0,-1257 288,-2412 858,-3478 578,-1066 1354,-1951 2338,-2656 741,-542 1753,-1003 3027,-1382 1282,-380 2647,-569 4110,-569 2204,0 4136,316 5799,957 1671,633 2899,1500 3694,2584 786,1093 1337,2546 1636,4371l-4661 651c-208,-1464 -822,-2610 -1834,-3433 -1012,-821 -2439,-1228 -4291,-1228 -2177,0 -3739,361 -4669,1084 -932,722 -1401,1572 -1401,2538 0,614 189,1174 578,1672 389,505 994,930 1825,1264 478,181 1869,587 4200,1220 3361,893 5709,1634 7046,2204 1336,568 2385,1408 3143,2492 768,1093 1148,2449 1148,4075 0,1580 -461,3070 -1391,4471 -931,1400 -2268,2484 -4011,3252 -1753,767 -3731,1146 -5935,1146 -3649,0 -6441,-759 -8355,-2267 -1915,-1517 -3134,-3758 -3667,-6729z"/>
  <path id="17" class="fil2" d="M551815 372244l651 4210c-1338,280 -2538,424 -3587,424 -1725,0 -3062,-271 -4019,-823 -949,-550 -1617,-1264 -2005,-2158 -389,-894 -578,-2773 -578,-5637l0 -16204 -3523 0 0 -3686 3523 0 0 -6955 4769 -2864 0 9819 4769 0 0 3686 -4769 0 0 16475c0,1365 81,2241 253,2629 162,388 433,695 812,930 380,226 922,343 1626,343 525,0 1220,-62 2078,-189z"/>
  <path id="18" class="fil2" d="M556468 376498l0 -28128 4281 0 0 4308c1093,-1996 2105,-3314 3035,-3947 930,-641 1951,-957 3062,-957 1608,0 3243,506 4906,1508l-1699 4400c-1157,-651 -2312,-976 -3468,-976 -1039,0 -1970,316 -2792,939 -822,623 -1409,1490 -1762,2601 -533,1690 -794,3542 -794,5556l0 14696 -4769 0z"/>
  <path id="19" class="fil2" d="M574570 343113l0 -5420 4770 0 0 5420 -4770 0zm0 33385l0 -28128 4770 0 0 28128 -4770 0z"/>
  <path id="20" class="fil2" d="M604985 372976c-1771,1508 -3478,2565 -5114,3188 -1634,624 -3387,930 -5266,930 -3089,0 -5465,-749 -7126,-2257 -1663,-1500 -2494,-3424 -2494,-5764 0,-1373 317,-2628 940,-3766 632,-1138 1454,-2042 2466,-2729 1020,-686 2158,-1210 3432,-1562 940,-243 2358,-479 4246,-714 3848,-451 6693,-1002 8509,-1634 18,-651 27,-1066 27,-1238 0,-1933 -451,-3297 -1355,-4092 -1220,-1076 -3035,-1607 -5438,-1607 -2249,0 -3911,397 -4977,1183 -1075,786 -1861,2176 -2376,4182l-4661 -651c425,-1996 1121,-3613 2096,-4841 976,-1229 2384,-2168 4227,-2837 1834,-660 3975,-993 6396,-993 2402,0 4363,280 5871,849 1499,569 2610,1274 3315,2132 705,857 1201,1941 1491,3252 154,813 234,2276 234,4381l0 6322c0,4418 99,7209 299,8392 189,1183 586,2313 1165,3396l-4987 0c-478,-1002 -786,-2176 -920,-3522zm-380 -10569c-1735,704 -4336,1301 -7804,1789 -1970,280 -3361,596 -4174,948 -813,352 -1436,867 -1878,1536 -443,677 -669,1427 -669,2257 0,1257 478,2313 1445,3153 967,841 2376,1265 4227,1265 1835,0 3469,-397 4905,-1202 1427,-794 2484,-1887 3153,-3269 515,-1075 768,-2656 768,-4742l27 -1735z"/>
  <polygon id="21" class="fil2" points="616645,376498 616645,337693 621415,337693 621415,376498 "/>
 </g>
</svg>
